<?xml version="1.0" standalone="no"?>
<!DOCTYPE svg PUBLIC "-//W3C//DTD SVG 20010904//EN"
 "http://www.w3.org/TR/2001/REC-SVG-20010904/DTD/svg10.dtd">
<svg version="1.0" xmlns="http://www.w3.org/2000/svg"
 width="540.000000pt" height="156.000000pt" viewBox="0 0 540.000000 156.000000"
 preserveAspectRatio="xMidYMid meet">

<g transform="translate(0.000000,156.000000) scale(0.100000,-0.100000)"
fill="#000000" stroke="none">
<path d="M5 780 c0 -432 1 -608 2 -393 2 216 2 570 0 785 -1 216 -2 40 -2
-392z"/>
<path d="M2454 1441 c-90 -55 -85 -243 9 -302 40 -25 100 -21 152 11 l36 22
-3 67 -3 66 -62 3 -63 3 0 -36 c0 -32 2 -35 30 -35 39 0 40 -27 3 -41 -35 -13
-70 2 -83 37 -15 38 -12 107 6 132 21 31 69 30 89 -2 13 -20 21 -23 43 -17 39
11 39 36 -1 76 -29 29 -42 35 -78 35 -25 0 -57 -8 -75 -19z"/>
<path d="M2701 1308 c-28 -84 -51 -159 -51 -165 0 -8 13 -13 34 -13 29 0 34 4
42 33 9 30 13 32 57 35 46 3 47 2 53 -28 8 -35 10 -37 52 -45 35 -6 37 -2 23
41 -6 16 -28 89 -51 162 l-41 132 -33 0 -33 0 -52 -152z m87 -36 c-28 -5 -30
0 -16 39 l11 33 12 -34 c11 -32 10 -35 -7 -38z"/>
<path d="M2285 1363 c8 -99 9 -100 -59 15 -33 54 -41 62 -68 62 l-31 0 7 -132
c10 -191 12 -198 49 -198 l30 0 -7 88 c-7 96 -9 96 55 -10 37 -64 42 -68 76
-68 l35 0 -6 53 c-3 28 -8 103 -12 165 l-7 112 -34 0 -34 0 6 -87z"/>
<path d="M2940 1407 c0 -24 -3 -99 -7 -165 l-6 -122 31 0 c30 0 30 0 37 68 3
37 7 76 8 86 1 11 17 -17 36 -62 37 -90 49 -105 83 -100 25 3 24 -3 41 256 l4
72 -33 0 c-32 0 -34 -2 -34 -32 0 -18 -3 -57 -7 -87 l-6 -54 -37 89 c-36 87
-37 89 -73 92 l-37 3 0 -44z"/>
<path d="M2024 1416 c-6 -15 23 -303 31 -316 2 -4 18 -5 35 -2 l31 4 -7 57
c-3 31 -11 103 -17 161 -12 104 -12 105 -40 108 -17 2 -29 -2 -33 -12z"/>
<path d="M3317 1407 c-3 -12 -14 -84 -23 -160 -19 -147 -17 -156 28 -157 13 0
18 13 24 61 8 72 22 66 26 -11 3 -54 4 -55 36 -58 17 -2 32 -2 32 1 0 2 11 35
25 73 25 72 29 66 16 -24 -4 -29 -5 -55 -2 -56 3 -2 24 -7 45 -10 21 -4 49 -9
61 -12 18 -4 25 1 35 26 12 30 16 32 49 26 20 -3 41 -6 48 -6 6 0 13 -17 15
-37 3 -36 4 -37 67 -56 35 -10 67 -15 70 -10 4 4 15 34 24 65 l18 57 37 -13
c41 -15 42 -18 19 -93 l-15 -52 30 -10 c17 -6 32 -10 34 -9 5 6 94 293 94 305
0 14 -44 28 -58 19 -6 -3 -15 -28 -22 -56 -7 -27 -15 -50 -20 -50 -7 0 -72 21
-78 25 -1 1 7 27 18 59 l19 57 -25 9 c-14 6 -29 10 -33 10 -4 0 -28 -63 -52
-140 -24 -77 -46 -140 -49 -140 -3 0 -13 68 -22 151 -9 83 -20 155 -25 159 -4
5 -19 10 -33 12 -23 3 -33 -10 -107 -142 -46 -80 -83 -142 -83 -137 0 4 9 73
21 154 22 162 22 165 -40 161 -33 -3 -35 -6 -66 -88 l-32 -84 -5 88 c-3 48
-10 91 -14 96 -5 4 -25 10 -46 13 -31 5 -37 2 -41 -16z m403 -197 c0 -28 -4
-40 -14 -40 -24 0 -28 18 -11 50 8 16 18 30 20 30 3 0 5 -18 5 -40z"/>
<path d="M1922 1412 c-10 -7 -11 -22 -3 -73 18 -106 15 -108 -46 -21 -52 72
-61 80 -83 75 -14 -3 -27 -7 -29 -9 -4 -4 23 -228 35 -294 5 -25 5 -25 -11 3
-9 15 -13 33 -9 39 4 6 3 8 -4 4 -6 -3 -38 41 -78 110 -66 114 -68 116 -97
110 -17 -3 -32 -7 -33 -9 -2 -2 -8 -57 -14 -122 -18 -189 -9 -185 -107 -52
-47 65 -89 117 -93 117 -5 0 -20 -4 -34 -10 l-26 -10 0 -147 0 -148 -76 123
-75 122 -30 -17 c-17 -10 -34 -23 -39 -28 -5 -6 4 -46 21 -95 l30 -85 -68 67
-68 66 -32 -21 c-18 -12 -33 -26 -33 -30 0 -11 130 -223 155 -253 20 -23 20
-23 44 -5 l24 18 -47 74 -48 74 60 -65 c56 -62 60 -64 85 -53 32 15 33 27 7
94 -12 28 -19 53 -17 56 3 2 19 -20 37 -49 18 -29 33 -54 34 -55 1 -1 24 6 52
16 45 17 49 22 54 56 4 34 10 40 45 52 39 13 40 13 65 -16 25 -30 25 -30 75
-17 47 12 50 15 53 49 3 37 7 40 67 51 26 5 32 2 48 -25 19 -33 17 -33 121
-13 l28 6 -7 70 c-3 39 -9 77 -12 87 -3 9 21 -20 54 -65 57 -76 62 -81 92 -76
31 4 32 5 26 46 -4 22 -14 95 -23 161 -15 105 -20 120 -37 123 -11 1 -26 -2
-33 -6z m-286 -199 c19 -26 17 -43 -6 -43 -16 0 -20 7 -20 30 0 34 7 38 26 13z
m-242 -105 c-3 -4 -12 -8 -20 -8 -10 0 -14 11 -14 38 l0 37 19 -29 c11 -17 18
-33 15 -38z"/>
<path d="M4150 1211 c-16 -30 -12 -39 21 -56 l30 -16 -60 -113 -61 -114 27
-17 c25 -17 27 -17 41 1 7 11 36 63 63 117 l49 97 30 -15 c16 -8 33 -15 38
-15 8 0 36 50 30 55 -13 11 -180 95 -187 95 -6 0 -15 -9 -21 -19z"/>
<path d="M4380 1053 c-13 -16 -62 -67 -108 -115 -84 -86 -85 -88 -67 -108 10
-11 22 -20 26 -20 4 0 56 50 116 111 59 61 110 112 112 115 5 5 -39 44 -49 44
-3 0 -17 -12 -30 -27z"/>
<path d="M1806 803 c-3 -4 -6 -71 -6 -150 l0 -143 265 0 265 0 0 -43 0 -42
-87 -1 c-49 -1 -168 -2 -265 -3 l-178 -1 0 -155 0 -155 825 0 825 0 0 155 0
155 -57 1 c-32 1 -139 2 -238 3 l-180 1 -3 43 -3 42 240 0 241 0 0 149 0 149
-819 0 c-451 1 -822 -2 -825 -5z m781 -49 c-3 -3 -12 -4 -19 -1 -8 3 -5 6 6 6
11 1 17 -2 13 -5z m130 0 c-3 -3 -12 -4 -19 -1 -8 3 -5 6 6 6 11 1 17 -2 13
-5z m-177 -9 c0 -2 -18 -14 -39 -25 -49 -24 -99 -84 -107 -127 -3 -18 -10 -33
-15 -33 -12 0 -11 27 1 35 6 3 10 14 10 24 0 25 58 85 105 109 45 24 45 24 45
17z m253 -11 c75 -38 128 -113 126 -178 -1 -26 -3 -23 -13 19 -7 28 -17 59
-24 71 -12 23 -60 62 -107 87 -39 21 -24 22 18 1z m-252 -55 c-12 -13 -21 -29
-21 -37 0 -7 -8 -12 -17 -10 -28 5 -21 25 17 52 41 28 50 26 21 -5z m147 24
c19 -3 21 -7 12 -18 -7 -9 -8 -15 0 -20 22 -14 8 -25 -32 -25 -24 0 -48 -4
-55 -8 -7 -4 11 -8 39 -7 32 0 53 -5 55 -12 4 -10 -13 -13 -61 -13 -66 0 -66
0 -64 28 3 34 13 42 58 42 25 0 31 3 20 9 -8 6 -27 7 -42 4 -16 -3 -28 -1 -28
5 0 18 45 25 98 15z m99 -24 c27 -17 31 -24 22 -35 -15 -19 -28 -18 -36 4 -3
9 -13 25 -21 35 -20 23 -7 22 35 -4z m-222 -49 c0 -54 -11 -66 -21 -24 -4 14
-1 36 6 50 8 13 14 24 14 24 1 0 1 -22 1 -50z m186 -27 c-19 -26 -31 -29 -31
-8 0 8 4 15 9 15 5 0 8 14 6 31 l-4 30 18 -23 c17 -21 18 -24 2 -45z m107
-136 c3 -96 0 -139 -6 -132 -6 6 -13 28 -16 50 -4 22 -13 65 -21 95 -20 76
-19 127 3 139 11 6 20 6 27 0 6 -6 12 -74 13 -152z m-379 139 c6 -8 12 -27 13
-42 1 -30 1 -34 -31 -154 l-19 -75 -1 136 c-1 75 2 139 6 142 10 11 19 8 32
-7z m151 -26 c0 -14 27 -13 32 1 3 9 10 8 28 -1 19 -10 21 -14 8 -21 -27 -15
-92 -6 -96 14 -2 10 3 17 12 17 9 0 16 -4 16 -10z m-8 -63 c3 -6 4 -39 2 -72
-1 -33 -2 -102 -3 -152 l-1 -93 -32 7 c-37 7 -98 41 -98 53 0 5 7 35 16 67 8
32 22 83 31 113 8 30 17 69 20 86 5 31 5 31 33 18 15 -8 30 -20 32 -27z m137
-97 c5 -25 17 -71 25 -104 9 -32 13 -63 10 -68 -9 -14 -69 -38 -94 -38 -18 0
-20 7 -21 88 -1 81 -15 173 -18 115 -1 -13 -4 -23 -9 -23 -9 0 -9 107 1 116 4
4 7 -9 7 -29 0 -20 4 -37 9 -37 5 0 6 19 4 43 -5 40 -3 43 28 58 l34 16 7 -46
c3 -25 11 -66 17 -91z m-355 -130 c10 -19 34 -50 55 -68 l36 -33 -34 18 c-19
10 -45 39 -62 68 -28 48 -29 55 -27 165 l2 115 5 -115 c4 -84 11 -124 25 -150z
m513 208 c-3 -8 -6 -5 -6 6 -1 11 2 17 5 13 3 -3 4 -12 1 -19z m0 -85 c-3 -10
-5 -4 -5 12 0 17 2 24 5 18 2 -7 2 -21 0 -30z m3 -81 c0 -20 -21 -54 -59 -95
-28 -31 -99 -72 -109 -63 -3 3 -1 6 5 6 5 0 29 13 53 29 44 30 90 92 90 124 0
9 5 17 10 17 6 0 10 -8 10 -18z m-390 -152 c13 -8 13 -10 -2 -10 -9 0 -20 5
-23 10 -8 13 5 13 25 0z m57 -16 c-3 -3 -12 -4 -19 -1 -8 3 -5 6 6 6 11 1 17
-2 13 -5z m128 -4 c-11 -5 -31 -8 -45 -8 -23 0 -22 1 5 8 42 11 65 11 40 0z"/>
<path d="M1316 602 c-8 -16 -25 -36 -38 -44 -19 -12 -23 -24 -22 -54 1 -22 3
-41 3 -43 1 -2 12 4 26 13 l25 16 0 -90 0 -90 40 0 41 0 -3 158 -3 157 -27 3
c-21 3 -30 -3 -42 -26z"/>
<path d="M1477 619 c-44 -26 -61 -114 -32 -169 16 -31 53 -47 81 -36 12 5 15
2 10 -10 -3 -8 -6 -20 -6 -25 0 -5 -4 -9 -10 -9 -5 0 -10 7 -10 15 0 17 -36
20 -60 5 -21 -13 -2 -60 32 -79 34 -19 73 -7 102 32 25 34 35 156 16 211 -20
61 -77 92 -123 65z m58 -79 c8 -26 -3 -62 -18 -57 -7 2 -13 14 -15 26 -7 45
20 71 33 31z"/>
<path d="M3859 601 c-36 -36 -37 -58 -3 -71 36 -14 41 -13 49 13 7 20 7 21 12
3 3 -11 -2 -25 -11 -31 -9 -7 -16 -26 -16 -44 0 -24 4 -31 20 -31 15 0 20 -7
20 -29 0 -36 -19 -51 -27 -21 -4 17 -12 20 -37 18 -44 -4 -47 -38 -7 -78 38
-39 74 -39 112 -1 24 25 29 38 29 79 0 32 -5 54 -15 62 -11 9 -13 16 -5 24 5
5 10 29 10 52 0 34 -5 47 -26 63 -37 29 -70 26 -105 -8z"/>
<path d="M3650 580 c0 -42 5 -45 67 -40 l23 1 -19 -45 c-18 -40 -41 -139 -41
-173 0 -8 12 -13 33 -13 l33 0 13 74 c6 41 23 96 37 123 13 26 24 63 24 81 l0
32 -85 0 -85 0 0 -40z"/>
</g>
</svg>
